Get Low (20111)(1080P) 

Vanaf 17 maart in de bioscoop

Release 2009      



Verenigde Staten / Duitsland / Polen
Drama / Mystery
100 minuten

geregisseerd door Aaron Schneider
met Robert Duvall, Bill Murray en Sissy Spacek

De film vertelt het opmerkelijke en waargebeurde verhaal van Felix "Bush" 
Breazeale (Robert Duvall), een kluizenaar uit Tennessee die in 1938 bij 
leven zijn eigen begrafenis organiseerde en bezocht, zodat hij ervan kon 
genieten.
 
http://www.moviemeter.nl/film/56507

English

Storyline
Felix Bush (Robert Duvall) is a hermit who has no regard for anybody in the town or anyone who wants to get to know him. But one day, after a fellow old hermit as died and he hears people in the town telling stories about him, he decides that he needs to get these stories out in the public. He recruits Frank (Bill Murray) the local funeral home director to host his own funeral. This way he can hear what everyone is saying about him, and get the truth to his past out in the open. But will he be able to get anybody to come? And will he be able to reveal his secrets? 
 
http://www.imdb.com/title/tt1194263/


...Source:twiz-getlow1080p
...Beeld: 1080P (1920*800)
...Audio: English (AC3 & DTS) 5.1
...Container: x264 (MKV)
...Group: a.b.boneless & a.b.x264
...Par2: 5%
...Ondertitels: Nederlands, Engels

.NL VERTALING: SimplY ReleaseS TopperS!!
.
.Subtitles...........: KahNOn, Winchestergirl en Apstra 
.Controle, Bewerking.: Depositair
Thanks SimplyReleases

Spotinformatie 
Categorie : Beeld 
Formaat : x264HD 
Bron : Retail
 
Ondertitels : Nederlands (instelbaar)
Engels (instelbaar)
 
Genre : Drama
Mysterie

Format                           : Matroska
File size                        : 8.27 GiB
Duration                         : 1h 43mn
Overall bit rate                 : 11.5 Mbps
Movie name                       : Simply Releases did it again!
Encoded date                     : UTC 2011-02-12 10:24:26
Writing application              : mkvmerge v2.3.0 ('Freak U') built on Sep  8 2008 18:32:16
Writing library                  : libebml v0.7.7 + libmatroska v0.8.1

Video
ID                               : 1
Format                           : AVC
Format/Info                      : Advanced Video Codec
Format profile                   : High@L4.1
Format settings, CABAC           : Yes
Format settings, ReFrames        : 5 frames
Muxing mode                      : Container profile=Unknown@4.1
Codec ID                         : V_MPEG4/ISO/AVC
Duration                         : 1h 43mn
Bit rate                         : 9 492 Kbps
Width                            : 1 920 pixels
Height                           : 800 pixels
Display aspect ratio             : 2.40:1
Frame rate                       : 23.976 fps
Color space                      : YUV
Chroma subsampling               : 4:2:0
Bit depth                        : 8 bits
Scan type                        : Progressive
Bits/(Pixel*Frame)               : 0.258
Stream size                      : 6.70 GiB (81%)
Writing library                  : x264 core 113 r1884 7313bb5
Encoding settings                : cabac=1 / ref=5 / deblock=1:0:0 / analyse=0x3:0x133 / me=umh / subme=8 / psy=1 / psy_rd=1.00:0.00 / mixed_ref=1 / me_range=16 / chroma_me=1 / trellis=1 / 8x8dct=1 / cqm=0 / deadzone=21,11 / fast_pskip=0 / chroma_qp_offset=-2 / threads=12 / sliced_threads=0 / nr=0 / decimate=0 / interlaced=0 / constrained_intra=0 / bframes=3 / b_pyramid=2 / b_adapt=1 / b_bias=0 / direct=1 / weightb=1 / open_gop=0 / weightp=2 / keyint=240 / keyint_min=25 / scenecut=40 / intra_refresh=0 / rc_lookahead=40 / rc=2pass / mbtree=1 / bitrate=9492 / ratetol=1.0 / qcomp=0.60 / qpmin=10 / qpmax=69 / qpstep=4 / cplxblur=20.0 / qblur=0.5 / ip_ratio=1.40 / aq=1:1.00
Language                         : English

Audio #1
ID                               : 2
Format                           : AC-3
Format/Info                      : Audio Coding 3
Mode extension                   : CM (complete main)
Codec ID                         : A_AC3
Duration                         : 1h 43mn
Bit rate mode                    : Constant
Bit rate                         : 448 Kbps
Channel(s)                       : 6 channels
Channel positions                : Front: L C R, Side: L R, LFE
Sampling rate                    : 48.0 KHz
Bit depth                        : 16 bits
Stream size                      : 331 MiB (4%)
Title                            : DD5.1
Language                         : English

Audio #2
ID                               : 3
Format                           : DTS
Format/Info                      : Digital Theater Systems
Codec ID                         : A_DTS
Duration                         : 1h 43mn
Bit rate mode                    : Constant
Bit rate                         : 1 510 Kbps
Channel(s)                       : 6 channels
Channel positions                : Front: L C R, Side: L R, LFE
Sampling rate                    : 48.0 KHz
Bit depth                        : 24 bits
Stream size                      : 1.09 GiB (13%)
Title                            : DTS 5.1
Language                         : English

Text #1
ID                               : 4
Format                           : UTF-8
Codec ID                         : S_TEXT/UTF8
Codec ID/Info                    : UTF-8 Plain Text
Title                            : English
Language                         : English

Text #2
ID                               : 5
Format                           : UTF-8
Codec ID                         : S_TEXT/UTF8
Codec ID/Info                    : UTF-8 Plain Text
Title                            : Nederlands
Language                         : Dutch


 
Weblink :  http://www.moviemeter.nl/film/56507
Weblink :  http://www.imdb.com/title/tt1194263/

TBS

Black-Sam